<?xml version="1.0" encoding="utf-8"?>
<!-- Generator: Adobe Illustrator 16.0.4, SVG Export Plug-In . SVG Version: 6.00 Build 0)  -->
<!DOCTYPE svg PUBLIC "-//W3C//DTD SVG 1.1//EN" "http://www.w3.org/Graphics/SVG/1.1/DTD/svg11.dtd">
<svg version="1.1" id="Layer_1" xmlns="http://www.w3.org/2000/svg" xmlns:xlink="http://www.w3.org/1999/xlink" x="0px" y="0px"
	 width="512px" height="512px" viewBox="0 0 512 512" enable-background="new 0 0 512 512" xml:space="preserve">
<g id="PQStudioCenter">
	<path id="Big_Gear_1_" fill-rule="evenodd" clip-rule="evenodd" fill="#00132D" d="M494.603,244.051
		c-0.738-12.881-7.363-19.373-20.299-21.081c-8.915-1.178-17.826-2.388-26.732-3.64c-10.334-1.451-17.297-7.287-21.271-16.77
		c-4.117-9.822-8.104-19.7-12.125-29.563c-3.749-9.196-2.941-17.921,2.979-25.981c6.015-8.188,12.231-16.23,18.205-24.449
		c6.064-8.343,5.322-18.018-1.892-25.454c-5.917-6.098-11.935-12.102-17.989-18.063c-7.979-7.856-17.57-8.602-26.617-2.004
		c-8.21,5.986-16.225,12.24-24.474,18.171c-7.431,5.341-15.648,6.401-24.167,3.047c-10.683-4.208-21.311-8.568-31.851-13.122
		c-8.518-3.681-13.957-10.089-15.374-19.452c-1.546-10.207-2.784-20.462-4.44-30.649c-1.676-10.306-8.415-16.801-18.796-17.537
		c-8.287-0.588-16.662-0.674-24.957-0.22c-13.615,0.746-20.115,7.194-21.896,20.612c-1.183,8.915-2.378,17.83-3.663,26.731
		c-1.461,10.115-7.177,17.009-16.473,20.932c-9.967,4.206-19.998,8.256-30.017,12.337c-9.235,3.763-17.934,2.712-25.96-3.196
		c-7.914-5.826-15.705-11.821-23.632-17.629c-9.016-6.606-18.745-5.874-26.623,1.917c-5.805,5.74-11.569,11.523-17.309,17.33
		c-8.128,8.223-8.887,17.719-2.083,26.989c5.913,8.057,11.996,15.989,17.904,24.05c5.315,7.253,6.559,15.394,3.457,23.693
		c-4.192,11.218-8.814,22.293-13.701,33.229c-3.604,8.064-9.935,13.314-18.883,14.699c-10.202,1.579-20.462,2.788-30.659,4.392
		c-10.517,1.654-17.164,8.51-17.792,19.105c-0.53,8.955-0.534,17.991-0.021,26.946c0.622,10.869,7.316,17.684,18.111,19.326
		c10.041,1.529,20.127,2.762,30.16,4.34c9.319,1.465,15.734,6.934,19.41,15.459c4.547,10.545,8.965,21.15,13.138,31.848
		c3.243,8.311,2.224,16.373-2.847,23.766c-2.447,3.568-5.144,6.967-7.732,10.439c-4.081,5.477-8.31,10.85-12.214,16.449
		c-4.922,7.061-5.677,14.809-1.532,19.473c6.298,7.09,12.685,14.166,19.649,20.58c9.233,8.504,23.201,8.684,33.292,1.172
		c6.947-5.172,13.775-10.512,20.831-15.531c7.471-5.316,15.706-6.195,24.198-2.842c10.525,4.154,20.994,8.463,31.396,12.92
		c8.717,3.734,14.256,10.24,15.695,19.787c1.49,9.879,2.714,19.799,4.217,29.678c1.655,10.883,8.316,17.609,19.171,18.303
		c9.113,0.582,18.324,0.551,27.439-0.037c10.347-0.668,17.125-7.381,18.709-17.594c1.479-9.543,2.745-19.121,4.009-28.695
		c1.391-10.537,7.07-17.744,16.779-21.807c9.98-4.178,19.966-8.346,30.039-12.291c3.189-1.248,7.967-3.498,11.476-2.984
		s9.54,3.207,13.944,6.113c8.327,5.496,16.048,11.902,24.112,17.807c8.836,6.467,18.525,5.807,26.244-1.752
		c6.071-5.945,12.079-11.957,18.018-18.035c7.581-7.758,8.283-17.5,1.87-26.25c-6.005-8.197-12.219-16.24-18.204-24.449
		c-5.547-7.607-6.355-15.99-2.996-24.635c3.978-10.238,8.237-20.367,12.477-30.5c4.144-9.902,11.527-15.564,22.272-16.902
		c9.419-1.17,18.826-2.465,28.209-3.893c10.168-1.547,16.915-8.371,17.63-18.688C495.021,261.379,495.097,252.671,494.603,244.051z"
		/>
	<path id="Small_Gear_1_" fill-rule="evenodd" clip-rule="evenodd" fill="#52B7FE" d="M483.937,240.396
		c-0.434-8.023-7.492-14.688-15.536-15.84c-7.574-1.086-15.135-2.541-22.751-2.996c-14.455-0.867-23.814-7.77-28.559-21.496
		c-2.647-7.66-5.89-15.133-9.185-22.547c-4.48-10.086-3.517-19.289,3.327-28.021c5.644-7.199,11.116-14.539,16.479-21.951
		c5.639-7.793,4.922-17.223-1.748-24.117c-5.561-5.746-11.246-11.373-16.93-17c-7.874-7.797-17.146-8.506-26.031-1.945
		c-7.626,5.633-15.103,11.473-22.774,17.041c-7.083,5.143-14.95,6.445-23.146,3.219c-10.632-4.189-21.187-8.594-31.651-13.184
		c-8.015-3.518-12.949-9.775-14.297-18.498c-1.498-9.697-2.755-19.434-4.083-29.158c-1.208-8.848-7.136-15.684-16.132-16.336
		c-10.225-0.74-20.581-0.566-30.822,0.107c-7.487,0.494-13.913,7.709-15.014,15.256c-1.104,7.572-2.535,15.133-3.016,22.75
		c-0.906,14.369-7.545,23.891-21.36,28.654c-8.288,2.857-16.252,6.652-24.393,9.949c-8.874,3.594-17.261,2.637-24.979-3.08
		c-7.753-5.742-15.366-11.674-23.166-17.35c-7.92-5.764-17.448-4.988-24.49,1.881c-5.605,5.467-11.111,11.039-16.612,16.611
		c-8.041,8.145-8.701,17.234-1.881,26.428c5.551,7.48,11.277,14.832,16.773,22.352c5.166,7.07,6.549,14.949,3.361,23.141
		c-4.204,10.805-8.622,21.539-13.388,32.107c-3.665,8.127-10.229,12.918-19.193,14.156c-9.724,1.344-19.454,2.637-29.169,4.037
		c-8.134,1.172-14.95,7.529-15.473,15.877c-0.631,10.078-0.601,20.254,0.014,30.334c0.486,7.973,7.396,14.518,15.134,15.67
		c7.569,1.127,15.144,2.273,22.752,3.066c9.737,1.014,19.54,2.773,24.233,12.316c6.051,12.301,11.151,25.121,15.844,38.016
		c2.585,7.102,0.276,14.141-4.226,20.217c-6.041,8.152-12.273,16.168-18.213,24.395c-4.989,6.91-5.93,14.402-1.954,18.906
		c6.163,6.982,12.445,13.949,19.37,20.146c8.706,7.793,21.451,7.857,30.709,1.012c6.821-5.043,13.49-10.297,20.377-15.248
		c6.972-5.014,14.735-6.125,22.722-3.004c10.801,4.221,21.554,8.6,32.118,13.373c7.938,3.586,12.717,10.031,13.989,18.777
		c1.413,9.713,2.68,19.449,4.047,29.168c1.195,8.492,7.447,14.861,16.019,16.012c4.934,0.662,9.968,1.15,15.093,1.119
		s10.15-0.5,15.248-1.186c7.905-1.061,14.379-7.545,15.541-15.377c1.123-7.57,2.568-15.135,3.028-22.754
		c0.868-14.381,7.456-23.924,21.299-28.674c8.136-2.793,15.986-6.428,23.922-9.783c9.241-3.906,17.836-2.895,25.849,3.117
		c7.584,5.691,15.095,11.482,22.754,17.072c7.878,5.748,17.506,5.029,24.509-1.777c5.733-5.574,11.347-11.275,16.956-16.975
		c7.612-7.738,8.32-16.957,1.911-25.652c-5.725-7.766-11.669-15.373-17.331-23.186c-5.155-7.115-6.222-15.004-2.994-23.17
		c4.138-10.471,8.446-20.881,12.98-31.186c3.676-8.355,10.18-13.361,19.346-14.643c9.721-1.357,19.45-2.65,29.165-4.043
		c8.333-1.195,15.193-7.768,15.662-16.258C484.519,260.322,484.474,250.322,483.937,240.396z"/>
</g>
<g id="Paw_5_">
	<path fill-rule="evenodd" clip-rule="evenodd" fill="#00132D" d="M305.994,276.775c0.429-10.008-1.276-19.817-5.038-29.018
		c-10.561-25.83-29.323-37.873-54.498-39.018c-13.538-0.615-26.148,4.262-38.05,10.807c-3.012,1.656-6.689,2.229-10.135,2.941
		c-6.882,1.426-14.097,1.775-20.677,4.025c-26.151,8.943-45.965,40.409-45.074,66.698c0.486,4.254,0.439,8.652,1.553,12.734
		c4.538,16.646,13.841,29.006,32.015,31.664c6.545,0.959,10.922,3.936,15.113,8.711c8.551,9.744,19.38,15.691,32.405,17.396
		c3.655,0.479,6.86,1.883,9.062,5.215c11.514,17.432,33.861,20.662,52.02,11.959c18.003-8.631,30.108-22.652,37.025-40.906
		c6.499-17.146,7.302-34.605-2.499-51.098C306.893,284.977,305.804,281.242,305.994,276.775z"/>
	<path fill-rule="evenodd" clip-rule="evenodd" fill="#311414" d="M185.167,213.263c18.808-17.318,26.611-48.426,15.611-73.354
		c-10.885-24.668-35.396-31.246-55.269-15.018c-15.605,12.742-21.039,30.307-22.701,49.029c0.782,11.35,2.724,21.744,8.262,31.32
		C143.011,225.884,167.623,229.417,185.167,213.263z"/>
	<path fill-rule="evenodd" clip-rule="evenodd" fill="#00132D" d="M269.675,196.117c25.894-13.299,40.54-50.068,30.152-77.242
		c-5.312-13.896-16.427-24.096-31.598-23.705c-6.729,0.268-13.181,2.18-18.717,5.355c-25.018,14.342-37.622,47.453-28.434,74.82
		C228.153,196.417,248.308,207.091,269.675,196.117z"/>
	<path fill-rule="evenodd" clip-rule="evenodd" fill="#00132D" d="M340.34,242.908c11.897-3.02,21.923-9.236,30.225-18.08
		c12.658-13.486,20.249-29.002,18.588-48.166c-1.554-17.93-15.066-30.338-33.532-30.352c-9.12,0.439-15.9,2.312-22.729,5.887
		c-20.1,10.521-32.491,27.152-36.29,49.82C292.146,228.601,313.022,249.839,340.34,242.908z"/>
	<path fill-rule="evenodd" clip-rule="evenodd" fill="#00132D" d="M362.021,336.236c17.324-1.713,32.005-9.926,43.582-23.236
		c8.609-9.9,14.8-21.229,15.246-34.334c0.022-0.654,0.03-1.299,0.025-1.938c-0.189-20.217-13.751-33.051-34.638-34
		c-14.13-0.641-26.704,4.885-37.667,13.375c-14.979,11.6-25.07,26.27-25.638,40.014
		C322.689,328.277,344.864,337.934,362.021,336.236z"/>
</g>
</svg>
